<svg id="visual" viewBox="0 0 1920 1080" width="1920" height="1080" xmlns="http://www.w3.org/2000/svg" xmlns:xlink="http://www.w3.org/1999/xlink" version="1.1"><rect x="0" y="0" width="1920" height="1080" fill="#222"></rect><defs><linearGradient id="grad1_0" x1="43.8%" y1="0%" x2="100%" y2="100%"><stop offset="14.444444444444446%" stop-color="#cc43e5" stop-opacity="1"></stop><stop offset="85.55555555555554%" stop-color="#cc43e5" stop-opacity="1"></stop></linearGradient></defs><defs><linearGradient id="grad1_1" x1="43.8%" y1="0%" x2="100%" y2="100%"><stop offset="14.444444444444446%" stop-color="#cc43e5" stop-opacity="1"></stop><stop offset="85.55555555555554%" stop-color="#b241c6" stop-opacity="1"></stop></linearGradient></defs><defs><linearGradient id="grad1_2" x1="43.8%" y1="0%" x2="100%" y2="100%"><stop offset="14.444444444444446%" stop-color="#983ea8" stop-opacity="1"></stop><stop offset="85.55555555555554%" stop-color="#b241c6" stop-opacity="1"></stop></linearGradient></defs><defs><linearGradient id="grad1_3" x1="43.8%" y1="0%" x2="100%" y2="100%"><stop offset="14.444444444444446%" stop-color="#983ea8" stop-opacity="1"></stop><stop offset="85.55555555555554%" stop-color="#7f3a8b" stop-opacity="1"></stop></linearGradient></defs><defs><linearGradient id="grad1_4" x1="43.8%" y1="0%" x2="100%" y2="100%"><stop offset="14.444444444444446%" stop-color="#67366f" stop-opacity="1"></stop><stop offset="85.55555555555554%" stop-color="#7f3a8b" stop-opacity="1"></stop></linearGradient></defs><defs><linearGradient id="grad1_5" x1="43.8%" y1="0%" x2="100%" y2="100%"><stop offset="14.444444444444446%" stop-color="#67366f" stop-opacity="1"></stop><stop offset="85.55555555555554%" stop-color="#4f3054" stop-opacity="1"></stop></linearGradient></defs><defs><linearGradient id="grad1_6" x1="43.8%" y1="0%" x2="100%" y2="100%"><stop offset="14.444444444444446%" stop-color="#38293a" stop-opacity="1"></stop><stop offset="85.55555555555554%" stop-color="#4f3054" stop-opacity="1"></stop></linearGradient></defs><defs><linearGradient id="grad1_7" x1="43.8%" y1="0%" x2="100%" y2="100%"><stop offset="14.444444444444446%" stop-color="#38293a" stop-opacity="1"></stop><stop offset="85.55555555555554%" stop-color="#222222" stop-opacity="1"></stop></linearGradient></defs><defs><linearGradient id="grad2_0" x1="0%" y1="0%" x2="56.3%" y2="100%"><stop offset="14.444444444444446%" stop-color="#cc43e5" stop-opacity="1"></stop><stop offset="85.55555555555554%" stop-color="#cc43e5" stop-opacity="1"></stop></linearGradient></defs><defs><linearGradient id="grad2_1" x1="0%" y1="0%" x2="56.3%" y2="100%"><stop offset="14.444444444444446%" stop-color="#b241c6" stop-opacity="1"></stop><stop offset="85.55555555555554%" stop-color="#cc43e5" stop-opacity="1"></stop></linearGradient></defs><defs><linearGradient id="grad2_2" x1="0%" y1="0%" x2="56.3%" y2="100%"><stop offset="14.444444444444446%" stop-color="#b241c6" stop-opacity="1"></stop><stop offset="85.55555555555554%" stop-color="#983ea8" stop-opacity="1"></stop></linearGradient></defs><defs><linearGradient id="grad2_3" x1="0%" y1="0%" x2="56.3%" y2="100%"><stop offset="14.444444444444446%" stop-color="#7f3a8b" stop-opacity="1"></stop><stop offset="85.55555555555554%" stop-color="#983ea8" stop-opacity="1"></stop></linearGradient></defs><defs><linearGradient id="grad2_4" x1="0%" y1="0%" x2="56.3%" y2="100%"><stop offset="14.444444444444446%" stop-color="#7f3a8b" stop-opacity="1"></stop><stop offset="85.55555555555554%" stop-color="#67366f" stop-opacity="1"></stop></linearGradient></defs><defs><linearGradient id="grad2_5" x1="0%" y1="0%" x2="56.3%" y2="100%"><stop offset="14.444444444444446%" stop-color="#4f3054" stop-opacity="1"></stop><stop offset="85.55555555555554%" stop-color="#67366f" stop-opacity="1"></stop></linearGradient></defs><defs><linearGradient id="grad2_6" x1="0%" y1="0%" x2="56.3%" y2="100%"><stop offset="14.444444444444446%" stop-color="#4f3054" stop-opacity="1"></stop><stop offset="85.55555555555554%" stop-color="#38293a" stop-opacity="1"></stop></linearGradient></defs><defs><linearGradient id="grad2_7" x1="0%" y1="0%" x2="56.3%" y2="100%"><stop offset="14.444444444444446%" stop-color="#222222" stop-opacity="1"></stop><stop offset="85.55555555555554%" stop-color="#38293a" stop-opacity="1"></stop></linearGradient></defs><g transform="translate(1920, 0)"><path d="M0 540C-62.3 502.2 -124.5 464.4 -178.7 431.5C-232.9 398.5 -279 370.3 -336.6 336.6C-394.1 302.9 -463.1 263.7 -498.9 206.6C-534.7 149.6 -537.4 74.8 -540 0L0 0Z" fill="#2d262e"></path><path d="M0 472.5C-54.5 439.4 -109 406.4 -156.4 377.5C-203.8 348.7 -244.2 324 -294.5 294.5C-344.9 265 -405.2 230.7 -436.5 180.8C-467.9 130.9 -470.2 65.5 -472.5 0L0 0Z" fill="#442d47"></path><path d="M0 405C-46.7 376.7 -93.4 348.3 -134 323.6C-174.7 298.9 -209.3 277.7 -252.4 252.4C-295.6 227.2 -347.3 197.7 -374.2 155C-401 112.2 -403 56.1 -405 0L0 0Z" fill="#5b3361"></path><path d="M0 337.5C-38.9 313.9 -77.8 290.3 -111.7 269.7C-145.6 249 -174.4 231.4 -210.4 210.4C-246.3 189.3 -289.4 164.8 -311.8 129.2C-334.2 93.5 -335.8 46.8 -337.5 0L0 0Z" fill="#73387d"></path><path d="M0 270C-31.1 251.1 -62.3 232.2 -89.4 215.7C-116.5 199.2 -139.5 185.1 -168.3 168.3C-197.1 151.4 -231.5 131.8 -249.4 103.3C-267.4 74.8 -268.7 37.4 -270 0L0 0Z" fill="#8c3d99"></path><path d="M0 202.5C-23.3 188.3 -46.7 174.2 -67 161.8C-87.3 149.4 -104.6 138.9 -126.2 126.2C-147.8 113.6 -173.7 98.9 -187.1 77.5C-200.5 56.1 -201.5 28.1 -202.5 0L0 0Z" fill="#a540b7"></path><path d="M0 135C-15.6 125.6 -31.1 116.1 -44.7 107.9C-58.2 99.6 -69.8 92.6 -84.1 84.1C-98.5 75.7 -115.8 65.9 -124.7 51.7C-133.7 37.4 -134.3 18.7 -135 0L0 0Z" fill="#bf42d5"></path><path d="M0 67.5C-7.8 62.8 -15.6 58.1 -22.3 53.9C-29.1 49.8 -34.9 46.3 -42.1 42.1C-49.3 37.9 -57.9 33 -62.4 25.8C-66.8 18.7 -67.2 9.4 -67.5 0L0 0Z" fill="#cc43e5"></path></g><g transform="translate(0, 1080)"><path d="M0 -540C78.2 -541.5 156.4 -543 206.6 -498.9C256.9 -454.8 279.1 -365.2 304.1 -304.1C329 -242.9 356.6 -210.1 396.3 -164.2C436.1 -118.2 488.1 -59.1 540 0L0 0Z" fill="#2d262e"></path><path d="M0 -472.5C68.4 -473.8 136.9 -475.1 180.8 -436.5C224.8 -398 244.2 -319.6 266 -266C287.9 -212.5 312 -183.8 346.8 -143.6C381.6 -103.5 427 -51.7 472.5 0L0 0Z" fill="#442d47"></path><path d="M0 -405C58.7 -406.1 117.3 -407.2 155 -374.2C192.7 -341.1 209.3 -273.9 228 -228C246.7 -182.2 267.4 -157.6 297.3 -123.1C327.1 -88.7 366 -44.3 405 0L0 0Z" fill="#5b3361"></path><path d="M0 -337.5C48.9 -338.4 97.8 -339.3 129.2 -311.8C160.5 -284.3 174.5 -228.3 190 -190C205.6 -151.8 222.9 -131.3 247.7 -102.6C272.6 -73.9 305 -36.9 337.5 0L0 0Z" fill="#73387d"></path><path d="M0 -270C39.1 -270.7 78.2 -271.5 103.3 -249.4C128.4 -227.4 139.6 -182.6 152 -152C164.5 -121.4 178.3 -105.1 198.2 -82.1C218.1 -59.1 244 -29.6 270 0L0 0Z" fill="#8c3d99"></path><path d="M0 -202.5C29.3 -203.1 58.7 -203.6 77.5 -187.1C96.3 -170.6 104.7 -137 114 -114C123.4 -91.1 133.7 -78.8 148.6 -61.6C163.5 -44.3 183 -22.2 202.5 0L0 0Z" fill="#a540b7"></path><path d="M0 -135C19.6 -135.4 39.1 -135.7 51.7 -124.7C64.2 -113.7 69.8 -91.3 76 -76C82.2 -60.7 89.1 -52.5 99.1 -41C109 -29.6 122 -14.8 135 0L0 0Z" fill="#bf42d5"></path><path d="M0 -67.5C9.8 -67.7 19.6 -67.9 25.8 -62.4C32.1 -56.9 34.9 -45.7 38 -38C41.1 -30.4 44.6 -26.3 49.5 -20.5C54.5 -14.8 61 -7.4 67.5 0L0 0Z" fill="#cc43e5"></path></g></svg>