<svg xmlns="http://www.w3.org/2000/svg" xmlns:xlink="http://www.w3.org/1999/xlink" width="500" zoomAndPan="magnify" viewBox="0 0 375 374.999991" height="500" preserveAspectRatio="xMidYMid meet" version="1.0"><defs><clipPath id="2e5aae4feb"><path d="M 1 107 L 375 107 L 375 321.421875 L 1 321.421875 Z M 1 107 " clip-rule="nonzero"/></clipPath><clipPath id="e43c01bee7"><path d="M 257 107 L 375 107 L 375 321.421875 L 257 321.421875 Z M 257 107 " clip-rule="nonzero"/></clipPath></defs><path fill="#5e2590" d="M 267.875 55.476562 C 249.757812 53.816406 230.933594 64.46875 225.898438 79.222656 L 213.074219 116.835938 C 211.257812 117.277344 209.683594 118.597656 209.003906 120.488281 C 207.925781 123.488281 209.484375 126.792969 212.480469 127.871094 C 215.476562 128.945312 218.78125 127.394531 219.855469 124.394531 C 220.765625 121.871094 219.796875 119.132812 217.683594 117.683594 L 230.652344 79.660156 C 234.960938 67.019531 251.035156 57.925781 266.550781 59.351562 C 282.070312 60.773438 291.152344 72.171875 286.84375 84.8125 L 274.996094 119.554688 C 272.957031 119.847656 271.136719 121.230469 270.390625 123.3125 C 269.3125 126.308594 270.863281 129.613281 273.863281 130.691406 C 276.863281 131.769531 280.164062 130.210938 281.242188 127.210938 C 282.089844 124.855469 281.304688 122.3125 279.472656 120.808594 L 291.597656 85.253906 C 296.628906 70.496094 285.988281 57.140625 267.875 55.476562 " fill-opacity="1" fill-rule="nonzero"/><path fill="#5e2590" d="M 284.675781 58.386719 C 266.5625 56.722656 247.734375 67.378906 242.703125 82.128906 L 229.878906 119.742188 C 228.058594 120.183594 226.488281 121.5 225.808594 123.398438 C 224.730469 126.398438 226.289062 129.699219 229.28125 130.777344 C 232.28125 131.851562 235.582031 130.300781 236.660156 127.300781 C 237.566406 124.777344 236.601562 122.039062 234.488281 120.59375 L 247.457031 82.5625 C 251.765625 69.925781 267.839844 60.832031 283.355469 62.257812 C 298.875 63.679688 307.957031 75.082031 303.648438 87.722656 L 291.804688 122.457031 C 289.757812 122.753906 287.9375 124.140625 287.195312 126.21875 C 286.113281 129.214844 287.671875 132.519531 290.667969 133.597656 C 293.664062 134.675781 296.96875 133.121094 298.046875 130.121094 C 298.894531 127.761719 298.109375 125.21875 296.273438 123.714844 L 308.402344 88.160156 C 313.433594 73.40625 302.789062 60.046875 284.675781 58.386719 " fill-opacity="1" fill-rule="nonzero"/><g clip-path="url(#2e5aae4feb)"><path fill="#8d198f" d="M 335.429688 113.878906 L 321.234375 107.980469 L 285.753906 109.523438 L 282.109375 120.214844 C 283.839844 122.378906 284.371094 125.324219 283.414062 127.996094 C 282.265625 131.191406 279.210938 133.34375 275.816406 133.34375 C 275.8125 133.34375 275.8125 133.34375 275.8125 133.34375 C 274.421875 133.339844 273.058594 132.980469 271.800781 132.273438 C 270.71875 131.664062 269.789062 130.796875 269.105469 129.761719 C 267.660156 127.570312 267.351562 124.933594 268.21875 122.53125 C 269.0625 120.183594 270.917969 118.394531 273.222656 117.613281 L 275.835938 109.957031 L 221.960938 112.304688 L 220.367188 116.972656 C 222.710938 119.519531 223.257812 123.410156 221.34375 126.617188 C 220.203125 128.53125 218.28125 129.894531 216.097656 130.347656 C 214.183594 130.742188 212.25 130.453125 210.523438 129.515625 C 209.394531 128.898438 208.429688 128.015625 207.722656 126.941406 C 206.277344 124.753906 205.96875 122.117188 206.835938 119.707031 C 207.597656 117.574219 209.210938 115.890625 211.257812 115.015625 L 212.035156 112.738281 L 180.933594 114.09375 L 169.9375 136.433594 L 243.375 136.433594 C 247.28125 136.433594 250.609375 139.472656 250.746094 143.378906 C 250.894531 147.484375 247.613281 150.851562 243.546875 150.851562 L 58.160156 150.851562 C 55.414062 150.851562 52.90625 152.414062 51.695312 154.878906 C 49.335938 159.671875 52.820312 165.273438 58.160156 165.273438 L 218.082031 165.273438 C 221.992188 165.273438 225.324219 168.316406 225.460938 172.226562 C 225.605469 176.328125 222.324219 179.699219 218.257812 179.699219 L 89.949219 179.699219 C 87.203125 179.699219 84.695312 181.257812 83.484375 183.722656 C 81.125 188.515625 84.609375 194.121094 89.949219 194.121094 L 186.808594 194.121094 C 190.714844 194.121094 194.042969 197.15625 194.183594 201.066406 C 194.328125 205.167969 191.046875 208.542969 186.980469 208.542969 L 8.824219 208.542969 C 6.082031 208.542969 3.574219 210.101562 2.359375 212.566406 C 0 217.355469 3.488281 222.964844 8.824219 222.964844 L 201.28125 222.964844 C 205.1875 222.964844 208.519531 226 208.65625 229.910156 C 208.800781 234.015625 205.523438 237.382812 201.453125 237.382812 L 29.582031 237.382812 C 26.835938 237.382812 24.328125 238.945312 23.113281 241.410156 C 20.753906 246.199219 24.242188 251.804688 29.582031 251.804688 L 148.515625 251.804688 C 152.425781 251.804688 155.753906 254.847656 155.894531 258.753906 C 156.039062 262.855469 152.757812 266.226562 148.6875 266.226562 L 106.039062 266.226562 L 92.054688 294.628906 L 257.851562 321.285156 L 375.003906 312.300781 L 335.429688 113.878906 " fill-opacity="1" fill-rule="nonzero"/></g><g clip-path="url(#e43c01bee7)"><path fill="#5e2590" d="M 321.234375 107.980469 L 257.851562 321.285156 L 375.003906 312.300781 L 335.429688 113.878906 L 321.234375 107.980469 " fill-opacity="1" fill-rule="nonzero"/></g></svg>