<svg xmlns="http://www.w3.org/2000/svg" xmlns:xlink="http://www.w3.org/1999/xlink" width="500" zoomAndPan="magnify" viewBox="0 0 375 112.499997" height="150" preserveAspectRatio="xMidYMid meet" version="1.0"><defs><g/><clipPath id="4fceb1f371"><path d="M 22.042969 7.121094 L 103.101562 7.121094 L 103.101562 96 L 22.042969 96 Z M 22.042969 7.121094 " clip-rule="nonzero"/></clipPath><clipPath id="8d57c4bd8b"><path d="M 22.042969 38.136719 L 22.042969 65.59375 C 22.042969 71.488281 25.207031 76.933594 30.34375 79.878906 L 54.277344 93.605469 C 59.410156 96.550781 65.738281 96.550781 70.875 93.605469 L 94.804688 79.878906 C 99.941406 76.933594 103.105469 71.488281 103.105469 65.59375 L 103.105469 38.136719 C 103.105469 32.246094 99.941406 26.800781 94.804688 23.855469 L 70.875 10.128906 C 65.738281 7.183594 59.410156 7.183594 54.277344 10.128906 L 30.34375 23.855469 C 25.207031 26.804688 22.042969 32.246094 22.042969 38.136719 Z M 22.042969 38.136719 " clip-rule="nonzero"/></clipPath><linearGradient x1="-4.240674" gradientTransform="matrix(0.205725, 0.000000000000000053, 0.000000000000000026, -0.204408, 22.044578, 96.221979)" y1="431.623678" x2="398.251141" gradientUnits="userSpaceOnUse" y2="2.376237" id="890b8595b1"><stop stop-opacity="1" stop-color="rgb(100%, 100%, 100%)" offset="0"/><stop stop-opacity="1" stop-color="rgb(100%, 100%, 100%)" offset="0.25"/><stop stop-opacity="1" stop-color="rgb(100%, 100%, 100%)" offset="0.3125"/><stop stop-opacity="1" stop-color="rgb(100%, 100%, 100%)" offset="0.34375"/><stop stop-opacity="1" stop-color="rgb(100%, 100%, 100%)" offset="0.359375"/><stop stop-opacity="1" stop-color="rgb(99.949646%, 99.949646%, 99.949646%)" offset="0.367188"/><stop stop-opacity="1" stop-color="rgb(99.391174%, 99.391174%, 99.391174%)" offset="0.371094"/><stop stop-opacity="1" stop-color="rgb(98.883057%, 98.883057%, 98.883057%)" offset="0.375"/><stop stop-opacity="1" stop-color="rgb(98.373413%, 98.373413%, 98.373413%)" offset="0.378906"/><stop stop-opacity="1" stop-color="rgb(97.865295%, 97.865295%, 97.865295%)" offset="0.382812"/><stop stop-opacity="1" stop-color="rgb(97.357178%, 97.357178%, 97.357178%)" offset="0.386719"/><stop stop-opacity="1" stop-color="rgb(96.84906%, 96.84906%, 96.84906%)" offset="0.390625"/><stop stop-opacity="1" stop-color="rgb(96.339417%, 96.339417%, 96.339417%)" offset="0.394531"/><stop stop-opacity="1" stop-color="rgb(95.831299%, 95.831299%, 95.831299%)" offset="0.398438"/><stop stop-opacity="1" stop-color="rgb(95.321655%, 95.321655%, 95.321655%)" offset="0.402344"/><stop stop-opacity="1" stop-color="rgb(94.813538%, 94.813538%, 94.813538%)" offset="0.40625"/><stop stop-opacity="1" stop-color="rgb(94.30542%, 94.30542%, 94.30542%)" offset="0.410156"/><stop stop-opacity="1" stop-color="rgb(93.797302%, 93.797302%, 93.797302%)" offset="0.414062"/><stop stop-opacity="1" stop-color="rgb(93.287659%, 93.287659%, 93.287659%)" offset="0.417969"/><stop stop-opacity="1" stop-color="rgb(92.779541%, 92.779541%, 92.779541%)" offset="0.421875"/><stop stop-opacity="1" stop-color="rgb(92.269897%, 92.269897%, 92.269897%)" offset="0.425781"/><stop stop-opacity="1" stop-color="rgb(91.76178%, 91.76178%, 91.76178%)" offset="0.429688"/><stop stop-opacity="1" stop-color="rgb(91.253662%, 91.253662%, 91.253662%)" offset="0.433594"/><stop stop-opacity="1" stop-color="rgb(90.745544%, 90.745544%, 90.745544%)" offset="0.4375"/><stop stop-opacity="1" stop-color="rgb(90.235901%, 90.235901%, 90.235901%)" offset="0.441406"/><stop stop-opacity="1" stop-color="rgb(89.727783%, 89.727783%, 89.727783%)" offset="0.445312"/><stop stop-opacity="1" stop-color="rgb(89.219666%, 89.219666%, 89.219666%)" offset="0.449219"/><stop stop-opacity="1" stop-color="rgb(88.711548%, 88.711548%, 88.711548%)" offset="0.453125"/><stop stop-opacity="1" stop-color="rgb(88.201904%, 88.201904%, 88.201904%)" offset="0.457031"/><stop stop-opacity="1" stop-color="rgb(87.693787%, 87.693787%, 87.693787%)" offset="0.460938"/><stop stop-opacity="1" stop-color="rgb(87.184143%, 87.184143%, 87.184143%)" offset="0.464844"/><stop stop-opacity="1" stop-color="rgb(86.676025%, 86.676025%, 86.676025%)" offset="0.46875"/><stop stop-opacity="1" stop-color="rgb(86.167908%, 86.167908%, 86.167908%)" offset="0.472656"/><stop stop-opacity="1" stop-color="rgb(85.65979%, 85.65979%, 85.65979%)" offset="0.476563"/><stop stop-opacity="1" stop-color="rgb(85.150146%, 85.150146%, 85.150146%)" offset="0.480469"/><stop stop-opacity="1" stop-color="rgb(84.642029%, 84.642029%, 84.642029%)" offset="0.484375"/><stop stop-opacity="1" stop-color="rgb(84.133911%, 84.133911%, 84.133911%)" offset="0.488281"/><stop stop-opacity="1" stop-color="rgb(83.625793%, 83.625793%, 83.625793%)" offset="0.492187"/><stop stop-opacity="1" stop-color="rgb(83.11615%, 83.11615%, 83.11615%)" offset="0.496094"/><stop stop-opacity="1" stop-color="rgb(82.608032%, 82.608032%, 82.608032%)" offset="0.5"/><stop stop-opacity="1" stop-color="rgb(82.098389%, 82.098389%, 82.098389%)" offset="0.503906"/><stop stop-opacity="1" stop-color="rgb(81.590271%, 81.590271%, 81.590271%)" offset="0.507812"/><stop stop-opacity="1" stop-color="rgb(81.082153%, 81.082153%, 81.082153%)" offset="0.511719"/><stop stop-opacity="1" stop-color="rgb(80.574036%, 80.574036%, 80.574036%)" offset="0.515625"/><stop stop-opacity="1" stop-color="rgb(80.064392%, 80.064392%, 80.064392%)" offset="0.519531"/><stop stop-opacity="1" stop-color="rgb(79.556274%, 79.556274%, 79.556274%)" offset="0.523438"/><stop stop-opacity="1" stop-color="rgb(79.046631%, 79.046631%, 79.046631%)" offset="0.527344"/><stop stop-opacity="1" stop-color="rgb(78.538513%, 78.538513%, 78.538513%)" offset="0.53125"/><stop stop-opacity="1" stop-color="rgb(78.030396%, 78.030396%, 78.030396%)" offset="0.535156"/><stop stop-opacity="1" stop-color="rgb(77.522278%, 77.522278%, 77.522278%)" offset="0.539062"/><stop stop-opacity="1" stop-color="rgb(77.012634%, 77.012634%, 77.012634%)" offset="0.542969"/><stop stop-opacity="1" stop-color="rgb(76.504517%, 76.504517%, 76.504517%)" offset="0.546875"/><stop stop-opacity="1" stop-color="rgb(75.996399%, 75.996399%, 75.996399%)" offset="0.550781"/><stop stop-opacity="1" stop-color="rgb(75.488281%, 75.488281%, 75.488281%)" offset="0.554688"/><stop stop-opacity="1" stop-color="rgb(74.978638%, 74.978638%, 74.978638%)" offset="0.558594"/><stop stop-opacity="1" stop-color="rgb(74.47052%, 74.47052%, 74.47052%)" offset="0.5625"/><stop stop-opacity="1" stop-color="rgb(73.960876%, 73.960876%, 73.960876%)" offset="0.566406"/><stop stop-opacity="1" stop-color="rgb(73.452759%, 73.452759%, 73.452759%)" offset="0.570312"/><stop stop-opacity="1" stop-color="rgb(72.944641%, 72.944641%, 72.944641%)" offset="0.574219"/><stop stop-opacity="1" stop-color="rgb(72.436523%, 72.436523%, 72.436523%)" offset="0.578125"/><stop stop-opacity="1" stop-color="rgb(71.92688%, 71.92688%, 71.92688%)" offset="0.582031"/><stop stop-opacity="1" stop-color="rgb(71.418762%, 71.418762%, 71.418762%)" offset="0.585938"/><stop stop-opacity="1" stop-color="rgb(70.910645%, 70.910645%, 70.910645%)" offset="0.589844"/><stop stop-opacity="1" stop-color="rgb(70.402527%, 70.402527%, 70.402527%)" offset="0.59375"/><stop stop-opacity="1" stop-color="rgb(69.892883%, 69.892883%, 69.892883%)" offset="0.597656"/><stop stop-opacity="1" stop-color="rgb(69.384766%, 69.384766%, 69.384766%)" offset="0.601562"/><stop stop-opacity="1" stop-color="rgb(68.875122%, 68.875122%, 68.875122%)" offset="0.605469"/><stop stop-opacity="1" stop-color="rgb(68.367004%, 68.367004%, 68.367004%)" offset="0.609375"/><stop stop-opacity="1" stop-color="rgb(67.858887%, 67.858887%, 67.858887%)" offset="0.613281"/><stop stop-opacity="1" stop-color="rgb(67.350769%, 67.350769%, 67.350769%)" offset="0.617188"/><stop stop-opacity="1" stop-color="rgb(66.841125%, 66.841125%, 66.841125%)" offset="0.621094"/><stop stop-opacity="1" stop-color="rgb(66.333008%, 66.333008%, 66.333008%)" offset="0.625"/><stop stop-opacity="1" stop-color="rgb(65.82489%, 65.82489%, 65.82489%)" offset="0.628906"/><stop stop-opacity="1" stop-color="rgb(65.316772%, 65.316772%, 65.316772%)" offset="0.632812"/><stop stop-opacity="1" stop-color="rgb(64.807129%, 64.807129%, 64.807129%)" offset="0.636719"/><stop stop-opacity="1" stop-color="rgb(64.299011%, 64.299011%, 64.299011%)" offset="0.640625"/><stop stop-opacity="1" stop-color="rgb(63.789368%, 63.789368%, 63.789368%)" offset="0.644531"/><stop stop-opacity="1" stop-color="rgb(63.28125%, 63.28125%, 63.28125%)" offset="0.648438"/><stop stop-opacity="1" stop-color="rgb(62.773132%, 62.773132%, 62.773132%)" offset="0.652344"/><stop stop-opacity="1" stop-color="rgb(62.265015%, 62.265015%, 62.265015%)" offset="0.65625"/><stop stop-opacity="1" stop-color="rgb(61.755371%, 61.755371%, 61.755371%)" offset="0.660156"/><stop stop-opacity="1" stop-color="rgb(61.247253%, 61.247253%, 61.247253%)" offset="0.664063"/><stop stop-opacity="1" stop-color="rgb(60.73761%, 60.73761%, 60.73761%)" offset="0.667969"/><stop stop-opacity="1" stop-color="rgb(60.229492%, 60.229492%, 60.229492%)" offset="0.671875"/><stop stop-opacity="1" stop-color="rgb(59.721375%, 59.721375%, 59.721375%)" offset="0.675781"/><stop stop-opacity="1" stop-color="rgb(59.213257%, 59.213257%, 59.213257%)" offset="0.679688"/><stop stop-opacity="1" stop-color="rgb(58.703613%, 58.703613%, 58.703613%)" offset="0.683594"/><stop stop-opacity="1" stop-color="rgb(58.195496%, 58.195496%, 58.195496%)" offset="0.6875"/><stop stop-opacity="1" stop-color="rgb(57.687378%, 57.687378%, 57.687378%)" offset="0.691406"/><stop stop-opacity="1" stop-color="rgb(57.17926%, 57.17926%, 57.17926%)" offset="0.695313"/><stop stop-opacity="1" stop-color="rgb(56.669617%, 56.669617%, 56.669617%)" offset="0.699219"/><stop stop-opacity="1" stop-color="rgb(56.161499%, 56.161499%, 56.161499%)" offset="0.703125"/><stop stop-opacity="1" stop-color="rgb(55.651855%, 55.651855%, 55.651855%)" offset="0.707031"/><stop stop-opacity="1" stop-color="rgb(55.143738%, 55.143738%, 55.143738%)" offset="0.710938"/><stop stop-opacity="1" stop-color="rgb(54.63562%, 54.63562%, 54.63562%)" offset="0.714844"/><stop stop-opacity="1" stop-color="rgb(54.127502%, 54.127502%, 54.127502%)" offset="0.71875"/><stop stop-opacity="1" stop-color="rgb(53.617859%, 53.617859%, 53.617859%)" offset="0.722656"/><stop stop-opacity="1" stop-color="rgb(53.109741%, 53.109741%, 53.109741%)" offset="0.726562"/><stop stop-opacity="1" stop-color="rgb(52.601624%, 52.601624%, 52.601624%)" offset="0.730469"/><stop stop-opacity="1" stop-color="rgb(52.093506%, 52.093506%, 52.093506%)" offset="0.734375"/><stop stop-opacity="1" stop-color="rgb(51.583862%, 51.583862%, 51.583862%)" offset="0.738281"/><stop stop-opacity="1" stop-color="rgb(51.075745%, 51.075745%, 51.075745%)" offset="0.742188"/><stop stop-opacity="1" stop-color="rgb(50.566101%, 50.566101%, 50.566101%)" offset="0.746094"/><stop stop-opacity="1" stop-color="rgb(50.057983%, 50.057983%, 50.057983%)" offset="0.75"/><stop stop-opacity="1" stop-color="rgb(49.549866%, 49.549866%, 49.549866%)" offset="0.753906"/><stop stop-opacity="1" stop-color="rgb(49.041748%, 49.041748%, 49.041748%)" offset="0.757812"/><stop stop-opacity="1" stop-color="rgb(48.532104%, 48.532104%, 48.532104%)" offset="0.761719"/><stop stop-opacity="1" stop-color="rgb(48.023987%, 48.023987%, 48.023987%)" offset="0.765625"/><stop stop-opacity="1" stop-color="rgb(47.514343%, 47.514343%, 47.514343%)" offset="0.769531"/><stop stop-opacity="1" stop-color="rgb(47.006226%, 47.006226%, 47.006226%)" offset="0.773438"/><stop stop-opacity="1" stop-color="rgb(46.498108%, 46.498108%, 46.498108%)" offset="0.777344"/><stop stop-opacity="1" stop-color="rgb(45.98999%, 45.98999%, 45.98999%)" offset="0.78125"/><stop stop-opacity="1" stop-color="rgb(45.480347%, 45.480347%, 45.480347%)" offset="0.785156"/><stop stop-opacity="1" stop-color="rgb(44.972229%, 44.972229%, 44.972229%)" offset="0.789062"/><stop stop-opacity="1" stop-color="rgb(44.464111%, 44.464111%, 44.464111%)" offset="0.792969"/><stop stop-opacity="1" stop-color="rgb(43.955994%, 43.955994%, 43.955994%)" offset="0.796875"/><stop stop-opacity="1" stop-color="rgb(43.44635%, 43.44635%, 43.44635%)" offset="0.800781"/><stop stop-opacity="1" stop-color="rgb(42.938232%, 42.938232%, 42.938232%)" offset="0.804687"/><stop stop-opacity="1" stop-color="rgb(42.428589%, 42.428589%, 42.428589%)" offset="0.808594"/><stop stop-opacity="1" stop-color="rgb(41.920471%, 41.920471%, 41.920471%)" offset="0.8125"/><stop stop-opacity="1" stop-color="rgb(41.412354%, 41.412354%, 41.412354%)" offset="0.816406"/><stop stop-opacity="1" stop-color="rgb(40.904236%, 40.904236%, 40.904236%)" offset="0.820312"/><stop stop-opacity="1" stop-color="rgb(40.394592%, 40.394592%, 40.394592%)" offset="0.824219"/><stop stop-opacity="1" stop-color="rgb(39.886475%, 39.886475%, 39.886475%)" offset="0.828125"/><stop stop-opacity="1" stop-color="rgb(39.378357%, 39.378357%, 39.378357%)" offset="0.832031"/><stop stop-opacity="1" stop-color="rgb(38.870239%, 38.870239%, 38.870239%)" offset="0.835937"/><stop stop-opacity="1" stop-color="rgb(38.360596%, 38.360596%, 38.360596%)" offset="0.839844"/><stop stop-opacity="1" stop-color="rgb(37.852478%, 37.852478%, 37.852478%)" offset="0.84375"/><stop stop-opacity="1" stop-color="rgb(37.342834%, 37.342834%, 37.342834%)" offset="0.847656"/><stop stop-opacity="1" stop-color="rgb(36.834717%, 36.834717%, 36.834717%)" offset="0.851562"/><stop stop-opacity="1" stop-color="rgb(36.326599%, 36.326599%, 36.326599%)" offset="0.855469"/><stop stop-opacity="1" stop-color="rgb(35.818481%, 35.818481%, 35.818481%)" offset="0.859375"/><stop stop-opacity="1" stop-color="rgb(35.308838%, 35.308838%, 35.308838%)" offset="0.863281"/><stop stop-opacity="1" stop-color="rgb(34.80072%, 34.80072%, 34.80072%)" offset="0.867188"/><stop stop-opacity="1" stop-color="rgb(34.292603%, 34.292603%, 34.292603%)" offset="0.871094"/><stop stop-opacity="1" stop-color="rgb(33.784485%, 33.784485%, 33.784485%)" offset="0.875"/><stop stop-opacity="1" stop-color="rgb(43.118286%, 27.24762%, 43.118286%)" offset="0.878906"/><stop stop-opacity="1" stop-color="rgb(52.452087%, 20.710754%, 52.452087%)" offset="0.882812"/><stop stop-opacity="1" stop-color="rgb(61.524963%, 15.054321%, 61.524963%)" offset="0.886719"/><stop stop-opacity="1" stop-color="rgb(70.599365%, 9.399414%, 70.599365%)" offset="0.890625"/><stop stop-opacity="1" stop-color="rgb(70.599365%, 9.399414%, 70.599365%)" offset="0.90625"/><stop stop-opacity="1" stop-color="rgb(70.599365%, 9.399414%, 70.599365%)" offset="0.9375"/><stop stop-opacity="1" stop-color="rgb(70.599365%, 9.399414%, 70.599365%)" offset="1"/></linearGradient><clipPath id="b026cd2f66"><path d="M 69 31 L 88 31 L 88 50 L 69 50 Z M 69 31 " clip-rule="nonzero"/></clipPath><clipPath id="3e786781b4"><path d="M 66.21875 37.558594 L 81.527344 28.34375 L 90.742188 43.652344 L 75.429688 52.867188 Z M 66.21875 37.558594 " clip-rule="nonzero"/></clipPath><clipPath id="36d94fbd1c"><path d="M 73.871094 32.949219 C 69.644531 35.492188 68.28125 40.984375 70.824219 45.210938 C 73.367188 49.4375 78.859375 50.804688 83.085938 48.257812 C 87.3125 45.714844 88.679688 40.226562 86.132812 35.996094 C 83.589844 31.769531 78.097656 30.40625 73.871094 32.949219 " clip-rule="nonzero"/></clipPath><clipPath id="f240616979"><path d="M 42 24 L 61 24 L 61 43 L 42 43 Z M 42 24 " clip-rule="nonzero"/></clipPath><clipPath id="464fcc9871"><path d="M 39.023438 30.796875 L 54.332031 21.582031 L 63.546875 36.894531 L 48.238281 46.105469 Z M 39.023438 30.796875 " clip-rule="nonzero"/></clipPath><clipPath id="3fe6a970f1"><path d="M 46.679688 26.191406 C 42.449219 28.734375 41.085938 34.222656 43.628906 38.453125 C 46.175781 42.679688 51.664062 44.042969 55.890625 41.5 C 60.121094 38.957031 61.484375 33.464844 58.941406 29.238281 C 56.394531 25.011719 50.90625 23.644531 46.679688 26.191406 " clip-rule="nonzero"/></clipPath><clipPath id="6db84814b6"><path d="M 35 52 L 54 52 L 54 70 L 35 70 Z M 35 52 " clip-rule="nonzero"/></clipPath><clipPath id="27d68835d3"><path d="M 32.261719 57.992188 L 47.574219 48.777344 L 56.789062 64.085938 L 41.476562 73.300781 Z M 32.261719 57.992188 " clip-rule="nonzero"/></clipPath><clipPath id="7cb05e4c2e"><path d="M 39.917969 53.382812 C 35.691406 55.929688 34.324219 61.417969 36.871094 65.644531 C 39.414062 69.875 44.90625 71.238281 49.132812 68.695312 C 53.359375 66.148438 54.726562 60.660156 52.179688 56.433594 C 49.636719 52.203125 44.144531 50.839844 39.917969 53.382812 " clip-rule="nonzero"/></clipPath><clipPath id="745378944f"><path d="M 62 58 L 81 58 L 81 77 L 62 77 Z M 62 58 " clip-rule="nonzero"/></clipPath><clipPath id="56c2fe0bf5"><path d="M 59.457031 64.75 L 74.765625 55.535156 L 83.980469 70.847656 L 68.671875 80.0625 Z M 59.457031 64.75 " clip-rule="nonzero"/></clipPath><clipPath id="329cea8e22"><path d="M 67.113281 60.144531 C 62.882812 62.6875 61.519531 68.179688 64.0625 72.40625 C 66.609375 76.632812 72.097656 77.996094 76.328125 75.453125 C 80.554688 72.910156 81.917969 67.417969 79.375 63.191406 C 76.828125 58.964844 71.339844 57.597656 67.113281 60.144531 " clip-rule="nonzero"/></clipPath></defs><g clip-path="url(#4fceb1f371)"><g clip-path="url(#8d57c4bd8b)"><path fill="url(#890b8595b1)" d="M 22.042969 96.550781 L 22.042969 7.183594 L 103.101562 7.183594 L 103.101562 96.550781 Z M 22.042969 96.550781 " fill-rule="nonzero"/></g></g><g clip-path="url(#b026cd2f66)"><g clip-path="url(#3e786781b4)"><g clip-path="url(#36d94fbd1c)"><path fill="#222222" d="M 66.21875 37.558594 L 81.527344 28.34375 L 90.742188 43.652344 L 75.429688 52.867188 Z M 66.21875 37.558594 " fill-opacity="1" fill-rule="nonzero"/></g></g></g><g clip-path="url(#f240616979)"><g clip-path="url(#464fcc9871)"><g clip-path="url(#3fe6a970f1)"><path fill="#222222" d="M 39.023438 30.796875 L 54.332031 21.582031 L 63.546875 36.894531 L 48.238281 46.105469 Z M 39.023438 30.796875 " fill-opacity="1" fill-rule="nonzero"/></g></g></g><g clip-path="url(#6db84814b6)"><g clip-path="url(#27d68835d3)"><g clip-path="url(#7cb05e4c2e)"><path fill="#222222" d="M 32.261719 57.992188 L 47.574219 48.777344 L 56.789062 64.085938 L 41.476562 73.300781 Z M 32.261719 57.992188 " fill-opacity="1" fill-rule="nonzero"/></g></g></g><g clip-path="url(#745378944f)"><g clip-path="url(#56c2fe0bf5)"><g clip-path="url(#329cea8e22)"><path fill="#222222" d="M 59.457031 64.75 L 74.765625 55.535156 L 83.980469 70.847656 L 68.671875 80.0625 Z M 59.457031 64.75 " fill-opacity="1" fill-rule="nonzero"/></g></g></g><g fill="#fdfcff" fill-opacity="1"><g transform="translate(106.906312, 49.638758)"><g><path d="M 2.484375 0 L 2.484375 -4.546875 L 14.125 -4.546875 C 15.988281 -4.546875 17.222656 -4.722656 17.828125 -5.078125 C 18.722656 -5.609375 19.171875 -6.410156 19.171875 -7.484375 C 19.171875 -8.734375 18.648438 -9.640625 17.609375 -10.203125 C 17.015625 -10.523438 16.070312 -10.6875 14.78125 -10.6875 L 10.046875 -10.6875 C 7.171875 -10.6875 5.09375 -11.210938 3.8125 -12.265625 C 3.03125 -12.921875 2.414062 -13.742188 1.96875 -14.734375 C 1.519531 -15.734375 1.296875 -16.804688 1.296875 -17.953125 C 1.296875 -19.734375 1.816406 -21.363281 2.859375 -22.84375 C 3.878906 -24.257812 5.507812 -25.097656 7.75 -25.359375 C 8.507812 -25.429688 9.644531 -25.46875 11.15625 -25.46875 L 23.796875 -25.46875 L 23.796875 -20.921875 L 12.375 -20.921875 C 10.664062 -20.898438 9.53125 -20.828125 8.96875 -20.703125 C 7.820312 -20.421875 7.25 -19.550781 7.25 -18.09375 C 7.25 -16.875 7.734375 -16.0625 8.703125 -15.65625 C 9.335938 -15.351562 10.410156 -15.203125 11.921875 -15.203125 L 16 -15.203125 C 18.082031 -15.203125 19.632812 -15.019531 20.65625 -14.65625 C 22.46875 -14.050781 23.71875 -12.984375 24.40625 -11.453125 C 24.9375 -10.234375 25.203125 -8.921875 25.203125 -7.515625 C 25.203125 -5.960938 24.847656 -4.578125 24.140625 -3.359375 C 23.140625 -1.628906 21.648438 -0.585938 19.671875 -0.234375 C 18.703125 -0.078125 17.238281 0 15.28125 0 Z M 2.484375 0 "/></g></g></g><g fill="#fdfcff" fill-opacity="1"><g transform="translate(133.06818, 49.638758)"><g><path d="M 2.59375 0 L 2.59375 -25.46875 L 8.015625 -25.46875 L 8.015625 0 Z M 2.59375 0 "/></g></g></g><g fill="#fdfcff" fill-opacity="1"><g transform="translate(143.265566, 49.638758)"><g><path d="M 10.390625 -25.46875 L 16.71875 -5.578125 L 23.40625 -25.46875 L 31.3125 -25.46875 L 31.3125 0 L 26.15625 0 L 26.15625 -19.09375 L 19.515625 0 L 13.9375 0 L 7.640625 -19.09375 L 7.640625 0 L 2.484375 0 L 2.484375 -25.46875 Z M 10.390625 -25.46875 "/></g></g></g><g fill="#fdfcff" fill-opacity="1"><g transform="translate(176.836789, 49.638758)"><g><path d="M 8.015625 -8.890625 L 8.015625 0 L 2.59375 0 L 2.59375 -25.46875 L 15.3125 -25.46875 C 17.625 -25.46875 19.28125 -25.300781 20.28125 -24.96875 C 21.957031 -24.414062 23.28125 -23.257812 24.25 -21.5 C 24.957031 -20.175781 25.3125 -18.738281 25.3125 -17.1875 C 25.3125 -15.882812 25.078125 -14.65625 24.609375 -13.5 C 24.140625 -12.34375 23.484375 -11.394531 22.640625 -10.65625 C 21.878906 -9.988281 21.070312 -9.523438 20.21875 -9.265625 C 19.363281 -9.015625 18.195312 -8.890625 16.71875 -8.890625 Z M 8.015625 -13.4375 L 15.390625 -13.4375 C 16.710938 -13.4375 17.640625 -13.640625 18.171875 -14.046875 C 18.960938 -14.679688 19.359375 -15.789062 19.359375 -17.375 C 19.359375 -19.082031 18.757812 -20.175781 17.5625 -20.65625 C 17.132812 -20.832031 16.445312 -20.921875 15.5 -20.921875 L 8.015625 -20.921875 Z M 8.015625 -13.4375 "/></g></g></g><g fill="#fdfcff" fill-opacity="1"><g transform="translate(202.616736, 49.638758)"><g><path d="M 2.296875 -25.46875 L 7.671875 -25.46875 L 7.671875 -11.15625 C 7.753906 -9.34375 7.832031 -8.144531 7.90625 -7.5625 C 8.082031 -6.382812 8.640625 -5.585938 9.578125 -5.171875 C 10.523438 -4.753906 12.179688 -4.546875 14.546875 -4.546875 L 19.75 -4.546875 L 19.75 0 L 13.984375 0 C 11.253906 0 9.28125 -0.148438 8.0625 -0.453125 C 5.257812 -1.273438 3.476562 -3.054688 2.71875 -5.796875 C 2.4375 -6.867188 2.296875 -8.65625 2.296875 -11.15625 Z M 2.296875 -25.46875 "/></g></g></g><g fill="#fdfcff" fill-opacity="1"><g transform="translate(222.553217, 49.638758)"><g><path d="M 21.6875 -25.46875 L 21.6875 -20.921875 L 14.625 -20.921875 C 12.789062 -20.921875 11.453125 -20.789062 10.609375 -20.53125 C 9.773438 -20.28125 9.078125 -19.789062 8.515625 -19.0625 C 8.128906 -18.550781 7.863281 -18.039062 7.71875 -17.53125 C 7.582031 -17.019531 7.46875 -16.15625 7.375 -14.9375 L 21.6875 -14.9375 L 21.6875 -10.390625 L 7.375 -10.390625 C 7.570312 -8.203125 8.21875 -6.679688 9.3125 -5.828125 C 10.40625 -4.972656 12.265625 -4.546875 14.890625 -4.546875 L 21.6875 -4.546875 L 21.6875 0 L 14.625 0 C 12.71875 0 11.035156 -0.113281 9.578125 -0.34375 C 7.285156 -0.726562 5.46875 -1.734375 4.125 -3.359375 C 2.1875 -5.703125 1.21875 -8.875 1.21875 -12.875 C 1.21875 -17.300781 2.582031 -20.75 5.3125 -23.21875 C 6.25 -24.0625 7.242188 -24.644531 8.296875 -24.96875 C 9.359375 -25.300781 10.78125 -25.46875 12.5625 -25.46875 Z M 21.6875 -25.46875 "/></g></g></g><g fill="#fdfcff" fill-opacity="1"><g transform="translate(106.906312, 80.45956)"><g><path d="M 2.484375 0 L 2.484375 -4.546875 L 14.125 -4.546875 C 15.988281 -4.546875 17.222656 -4.722656 17.828125 -5.078125 C 18.722656 -5.609375 19.171875 -6.410156 19.171875 -7.484375 C 19.171875 -8.734375 18.648438 -9.640625 17.609375 -10.203125 C 17.015625 -10.523438 16.070312 -10.6875 14.78125 -10.6875 L 10.046875 -10.6875 C 7.171875 -10.6875 5.09375 -11.210938 3.8125 -12.265625 C 3.03125 -12.921875 2.414062 -13.742188 1.96875 -14.734375 C 1.519531 -15.734375 1.296875 -16.804688 1.296875 -17.953125 C 1.296875 -19.734375 1.816406 -21.363281 2.859375 -22.84375 C 3.878906 -24.257812 5.507812 -25.097656 7.75 -25.359375 C 8.507812 -25.429688 9.644531 -25.46875 11.15625 -25.46875 L 23.796875 -25.46875 L 23.796875 -20.921875 L 12.375 -20.921875 C 10.664062 -20.898438 9.53125 -20.828125 8.96875 -20.703125 C 7.820312 -20.421875 7.25 -19.550781 7.25 -18.09375 C 7.25 -16.875 7.734375 -16.0625 8.703125 -15.65625 C 9.335938 -15.351562 10.410156 -15.203125 11.921875 -15.203125 L 16 -15.203125 C 18.082031 -15.203125 19.632812 -15.019531 20.65625 -14.65625 C 22.46875 -14.050781 23.71875 -12.984375 24.40625 -11.453125 C 24.9375 -10.234375 25.203125 -8.921875 25.203125 -7.515625 C 25.203125 -5.960938 24.847656 -4.578125 24.140625 -3.359375 C 23.140625 -1.628906 21.648438 -0.585938 19.671875 -0.234375 C 18.703125 -0.078125 17.238281 0 15.28125 0 Z M 2.484375 0 "/></g></g></g><g fill="#fdfcff" fill-opacity="1"><g transform="translate(133.06818, 80.45956)"><g><path d="M 8.25 -20.921875 L 0.15625 -20.921875 L 0.15625 -25.46875 L 22.109375 -25.46875 L 22.109375 -20.921875 L 13.671875 -20.921875 L 13.671875 0 L 8.25 0 Z M 8.25 -20.921875 "/></g></g></g><g fill="#fdfcff" fill-opacity="1"><g transform="translate(154.990681, 80.45956)"><g><path d="M 7.671875 -25.46875 L 7.671875 -10.203125 C 7.671875 -8.972656 7.769531 -8.019531 7.96875 -7.34375 C 8.175781 -6.675781 8.523438 -6.097656 9.015625 -5.609375 C 10.078125 -4.566406 11.566406 -4.046875 13.484375 -4.046875 C 14.703125 -4.046875 15.765625 -4.253906 16.671875 -4.671875 C 17.578125 -5.097656 18.207031 -5.664062 18.5625 -6.375 C 18.914062 -7.09375 19.09375 -8.367188 19.09375 -10.203125 L 19.09375 -25.46875 L 24.515625 -25.46875 L 24.515625 -10.46875 C 24.515625 -8.476562 24.300781 -6.835938 23.875 -5.546875 C 23.457031 -4.265625 22.816406 -3.226562 21.953125 -2.4375 C 19.941406 -0.6875 17.09375 0.1875 13.40625 0.1875 C 9.457031 0.1875 6.582031 -0.675781 4.78125 -2.40625 C 3.832031 -3.300781 3.179688 -4.300781 2.828125 -5.40625 C 2.472656 -6.507812 2.296875 -8.066406 2.296875 -10.078125 L 2.296875 -25.46875 Z M 7.671875 -25.46875 "/></g></g></g><g fill="#fdfcff" fill-opacity="1"><g transform="translate(181.458094, 80.45956)"><g><path d="M 2.59375 -25.46875 L 13.40625 -25.46875 C 16.101562 -25.46875 18.191406 -25.203125 19.671875 -24.671875 C 22.390625 -23.679688 24.207031 -21.859375 25.125 -19.203125 C 25.8125 -17.171875 26.15625 -14.992188 26.15625 -12.671875 C 26.15625 -10.378906 25.828125 -8.21875 25.171875 -6.1875 C 24.503906 -4.101562 23.40625 -2.5625 21.875 -1.5625 C 20.914062 -0.957031 19.851562 -0.546875 18.6875 -0.328125 C 17.53125 -0.109375 15.769531 0 13.40625 0 L 2.59375 0 Z M 8.015625 -20.921875 L 8.015625 -4.546875 L 13.40625 -4.546875 C 15.769531 -4.546875 17.410156 -5.066406 18.328125 -6.109375 C 18.890625 -6.773438 19.34375 -7.703125 19.6875 -8.890625 C 20.03125 -10.085938 20.203125 -11.363281 20.203125 -12.71875 C 20.203125 -14.21875 20 -15.59375 19.59375 -16.84375 C 19.1875 -18.09375 18.648438 -19.019531 17.984375 -19.625 C 17.015625 -20.488281 15.488281 -20.921875 13.40625 -20.921875 Z M 8.015625 -20.921875 "/></g></g></g><g fill="#fdfcff" fill-opacity="1"><g transform="translate(208.422009, 80.45956)"><g><path d="M 2.59375 0 L 2.59375 -25.46875 L 8.015625 -25.46875 L 8.015625 0 Z M 2.59375 0 "/></g></g></g><g fill="#fdfcff" fill-opacity="1"><g transform="translate(218.619393, 80.45956)"><g><path d="M 13.78125 -25.625 C 16.332031 -25.625 18.570312 -25.191406 20.5 -24.328125 C 22.769531 -23.285156 24.363281 -21.539062 25.28125 -19.09375 C 25.988281 -17.1875 26.34375 -14.945312 26.34375 -12.375 C 26.34375 -9.78125 25.910156 -7.523438 25.046875 -5.609375 C 23.953125 -3.347656 22.273438 -1.757812 20.015625 -0.84375 C 18.328125 -0.175781 16.390625 0.15625 14.203125 0.15625 C 11.328125 0.15625 8.832031 -0.378906 6.71875 -1.453125 C 4.9375 -2.335938 3.570312 -3.734375 2.625 -5.640625 C 1.6875 -7.554688 1.21875 -9.878906 1.21875 -12.609375 C 1.21875 -17.460938 2.425781 -20.921875 4.84375 -22.984375 C 6.882812 -24.710938 9.863281 -25.59375 13.78125 -25.625 Z M 13.828125 -21.34375 C 11.328125 -21.34375 9.546875 -20.53125 8.484375 -18.90625 C 7.609375 -17.632812 7.171875 -15.582031 7.171875 -12.75 C 7.171875 -9.769531 7.707031 -7.582031 8.78125 -6.1875 C 9.851562 -4.8125 11.546875 -4.125 13.859375 -4.125 C 16.097656 -4.125 17.742188 -4.820312 18.796875 -6.21875 C 19.859375 -7.625 20.390625 -9.789062 20.390625 -12.71875 C 20.390625 -15.382812 19.957031 -17.421875 19.09375 -18.828125 C 18.101562 -20.484375 16.347656 -21.320312 13.828125 -21.34375 Z M 13.828125 -21.34375 "/></g></g></g><g fill="#fdfcff" fill-opacity="1"><g transform="translate(245.812455, 80.45956)"><g><path d="M 2.484375 0 L 2.484375 -4.546875 L 14.125 -4.546875 C 15.988281 -4.546875 17.222656 -4.722656 17.828125 -5.078125 C 18.722656 -5.609375 19.171875 -6.410156 19.171875 -7.484375 C 19.171875 -8.734375 18.648438 -9.640625 17.609375 -10.203125 C 17.015625 -10.523438 16.070312 -10.6875 14.78125 -10.6875 L 10.046875 -10.6875 C 7.171875 -10.6875 5.09375 -11.210938 3.8125 -12.265625 C 3.03125 -12.921875 2.414062 -13.742188 1.96875 -14.734375 C 1.519531 -15.734375 1.296875 -16.804688 1.296875 -17.953125 C 1.296875 -19.734375 1.816406 -21.363281 2.859375 -22.84375 C 3.878906 -24.257812 5.507812 -25.097656 7.75 -25.359375 C 8.507812 -25.429688 9.644531 -25.46875 11.15625 -25.46875 L 23.796875 -25.46875 L 23.796875 -20.921875 L 12.375 -20.921875 C 10.664062 -20.898438 9.53125 -20.828125 8.96875 -20.703125 C 7.820312 -20.421875 7.25 -19.550781 7.25 -18.09375 C 7.25 -16.875 7.734375 -16.0625 8.703125 -15.65625 C 9.335938 -15.351562 10.410156 -15.203125 11.921875 -15.203125 L 16 -15.203125 C 18.082031 -15.203125 19.632812 -15.019531 20.65625 -14.65625 C 22.46875 -14.050781 23.71875 -12.984375 24.40625 -11.453125 C 24.9375 -10.234375 25.203125 -8.921875 25.203125 -7.515625 C 25.203125 -5.960938 24.847656 -4.578125 24.140625 -3.359375 C 23.140625 -1.628906 21.648438 -0.585938 19.671875 -0.234375 C 18.703125 -0.078125 17.238281 0 15.28125 0 Z M 2.484375 0 "/></g></g></g></svg>